<svg width="138" height="31" viewBox="0 0 138 31" fill="none" xmlns="http://www.w3.org/2000/svg">
<g opacity="0.8" clip-path="url(#clip0_367_3398)">
<path d="M42.0509 4.58984H34.8069C34.576 4.58984 34.374 4.79186 34.374 5.02274V21.3572C34.374 21.5881 34.576 21.7901 34.8069 21.7901H42.0798C47.7942 21.7901 51.4883 18.4135 51.4883 13.19C51.4883 7.93755 47.7942 4.58984 42.0509 4.58984ZM42.0509 17.2303H39.5689V9.12078H42.0798C44.6484 9.12078 46.2068 10.6215 46.2068 13.1611C46.2068 15.1813 44.7927 17.2303 42.0509 17.2303Z" fill="white"/>
<path d="M83.638 9.00537C81.6466 9.00537 80.0016 10.102 79.28 11.1987C78.7606 9.75571 77.5484 9.00537 75.7013 9.00537C73.6523 9.00537 72.1226 10.0443 71.5743 10.7369V9.75571C71.5743 9.52483 71.3723 9.32282 71.1414 9.32282H67.3606C67.1298 9.32282 66.9277 9.52483 66.9277 9.75571V21.3284C66.9277 21.5592 67.1298 21.7613 67.3606 21.7613H71.1414C71.3723 21.7613 71.5743 21.5592 71.5743 21.3284V14.0846C71.834 13.7672 72.4113 13.1034 73.4502 13.1034C74.3738 13.1034 74.8644 13.594 74.8644 14.4887V21.3284C74.8644 21.5592 75.0664 21.7613 75.2973 21.7613H79.078C79.3089 21.7613 79.511 21.5592 79.511 21.3284V14.0846C79.7707 13.7672 80.3479 13.1034 81.4157 13.1034C82.3104 13.1034 82.8299 13.6229 82.8299 14.4887V21.3284C82.8299 21.5592 83.0319 21.7613 83.2628 21.7613H87.0435C87.2744 21.7613 87.4764 21.5592 87.4764 21.3284V12.7282C87.5053 10.3329 86.12 9.00537 83.638 9.00537Z" fill="white"/>
<path d="M93.5955 9.32275H89.8147C89.5839 9.32275 89.3818 9.52477 89.3818 9.75565V21.3283C89.3818 21.5592 89.5839 21.7612 89.8147 21.7612H93.5955C93.8264 21.7612 94.0284 21.5592 94.0284 21.3283V9.75565C94.0284 9.52477 93.8264 9.32275 93.5955 9.32275Z" fill="white"/>
<path d="M91.8064 3.20459C90.3634 3.20459 89.209 4.35897 89.209 5.80194C89.209 7.24492 90.3923 8.3993 91.8064 8.3993C93.2495 8.3993 94.4039 7.24492 94.4039 5.80194C94.4327 4.38783 93.2495 3.20459 91.8064 3.20459Z" fill="white"/>
<path d="M104.908 9.00537C102.513 9.00537 101.185 10.0732 100.637 10.7369V9.75571C100.637 9.52483 100.435 9.32282 100.204 9.32282H96.4231C96.1923 9.32282 95.9902 9.52483 95.9902 9.75571V21.3284C95.9902 21.5592 96.1923 21.7613 96.4231 21.7613H100.204C100.435 21.7613 100.637 21.5592 100.637 21.3284V14.0846C100.925 13.7383 101.503 13.1034 102.628 13.1034C103.84 13.1034 104.446 13.7095 104.446 14.8927V21.3572C104.446 21.5881 104.648 21.7901 104.879 21.7901H108.66C108.891 21.7901 109.093 21.5881 109.093 21.3572V12.9591C109.064 10.4772 107.506 9.00537 104.908 9.00537Z" fill="white"/>
<path d="M58.9913 8.94751C55.3549 8.94751 52.4111 11.8912 52.4111 15.5275C52.4111 19.1638 55.3549 22.1074 58.9913 22.1074C62.6278 22.1074 65.5716 19.1638 65.5716 15.5275C65.5427 11.8912 62.5989 8.94751 58.9913 8.94751ZM58.9913 17.692C57.7503 17.692 56.7402 16.6819 56.7402 15.4409C56.7402 14.1999 57.7503 13.1899 58.9913 13.1899C60.2324 13.1899 61.2424 14.1999 61.2424 15.4409C61.2136 16.6819 60.2324 17.692 58.9913 17.692Z" fill="white"/>
<path d="M117.001 8.97632C113.365 8.97632 110.421 11.92 110.421 15.5563C110.421 19.1926 113.365 22.1363 117.001 22.1363C120.638 22.1363 123.581 19.1926 123.581 15.5563C123.581 11.92 120.638 8.97632 117.001 8.97632ZM117.001 17.6919C115.76 17.6919 114.75 16.6818 114.75 15.4408C114.75 14.1999 115.76 13.1898 117.001 13.1898C118.242 13.1898 119.252 14.1999 119.252 15.4408C119.252 16.6818 118.242 17.6919 117.001 17.6919Z" fill="white"/>
<path d="M127.218 5.31138C127.218 5.28252 127.218 5.28252 127.218 5.31138C127.218 5.28252 127.218 5.28252 127.218 5.28252C126.93 3.98384 125.516 3.06035 124.13 3.34894C122.716 3.63754 121.793 4.93622 122.081 6.26375C122.312 7.36041 123.264 8.11075 124.39 8.16847C124.332 8.60136 123.928 9.00541 123.611 9.20739C123.38 9.32287 123.524 9.55373 123.524 9.55373L123.813 9.98662C123.899 10.1309 124.015 10.2175 124.159 10.1309C127.016 8.91881 127.507 6.46576 127.218 5.31138Z" fill="white"/>
<path d="M130.566 13.0168C130.566 12.555 131.143 12.353 131.922 12.353C133.423 12.353 134.289 12.7859 135.241 13.4208C135.328 13.4785 135.472 13.5074 135.587 13.4785C135.703 13.4497 135.818 13.3631 135.876 13.2765L137.146 11.0543C137.261 10.8523 137.204 10.5926 137.002 10.4772C135.963 9.84224 134.433 9.03418 131.749 9.03418C127.91 9.03418 125.861 10.8523 126.208 13.4497C126.814 18.0095 133.913 16.4511 133.798 18.0095C133.769 18.3558 133.134 18.6444 132.066 18.6444C130.652 18.6444 129.065 17.9518 128.055 17.3168C127.968 17.2591 127.824 17.2303 127.708 17.2591C127.593 17.288 127.506 17.3746 127.449 17.4612L125.977 19.9142C125.861 20.1162 125.919 20.376 126.121 20.4914C127.535 21.4438 129.815 22.0787 131.807 22.0787C135.645 22.0787 137.867 20.4337 137.867 17.7209C137.81 12.6993 130.594 14.2577 130.566 13.0168Z" fill="white"/>
<path d="M28.9965 9.12198L20.9055 1.02338C20.5752 0.692822 20.1073 0.5 19.6395 0.5C19.1441 0.5 18.7038 0.692822 18.3736 1.02338L11.576 7.79979L0.292511 19.0938C-0.423025 19.81 -0.423025 20.9393 0.292511 21.6556L8.35604 29.7266C8.68632 30.0572 9.15415 30.25 9.62199 30.25C10.1174 30.25 10.5577 30.0572 10.8879 29.7266L20.988 19.6171L28.9415 11.6562C29.6845 10.9676 29.6845 9.81067 28.9965 9.12198Z" fill="white"/>
<path d="M28.4179 9.67279L20.3268 1.60174C19.9415 1.21609 19.3086 1.21609 18.9233 1.60174L10.1992 10.3339L19.6939 19.8374L28.4179 11.1052C28.8032 10.692 28.8032 10.086 28.4179 9.67279ZM21.3176 12.0142C20.8497 12.4825 20.2718 12.7029 19.6663 12.7029C19.0609 12.7029 18.4829 12.4825 18.0151 12.0142C17.5473 11.546 17.327 10.9675 17.327 10.3615C17.327 9.75544 17.5473 9.14941 18.0151 8.70867C18.4829 8.24041 19.0609 8.02004 19.6663 8.02004C20.2718 8.02004 20.8497 8.24041 21.3176 8.70867C21.7854 9.17694 22.0056 9.75544 22.0056 10.3615C22.0056 10.9675 21.7579 11.5735 21.3176 12.0142Z" fill="#F4B720"/>
<path d="M0.897365 19.6448C0.512076 20.0304 0.512076 20.664 0.897365 21.0497L8.9609 29.1483C9.15357 29.3411 9.40125 29.4513 9.67647 29.4513C9.92415 29.4513 10.1993 29.3411 10.392 29.1483L19.116 20.416L9.6214 10.9126L0.897365 19.6448ZM7.88763 21.9862C7.41974 22.4269 6.84183 22.6749 6.23634 22.6749C5.63091 22.6749 5.02546 22.4545 4.58513 21.9862C4.11728 21.5179 3.89711 20.9394 3.89711 20.3334C3.89711 19.7274 4.11728 19.1214 4.58513 18.6806C5.05298 18.2124 5.63091 17.992 6.23634 17.992C6.84183 17.992 7.44727 18.2124 7.88763 18.6806C8.35546 19.149 8.57561 19.7274 8.57561 20.3334C8.57561 20.9394 8.32793 21.5179 7.88763 21.9862ZM11.4378 18.7633C11.9056 18.295 12.4836 18.0746 13.089 18.0746C13.6944 18.0746 14.2999 18.295 14.7402 18.7633C15.2081 19.2316 15.4283 19.8101 15.4283 20.416C15.4283 21.0221 15.2081 21.6006 14.7402 22.0688C14.2724 22.5371 13.6944 22.7575 13.089 22.7575C12.4836 22.7575 11.9056 22.5371 11.4378 22.0688C10.9699 21.6006 10.7497 21.0221 10.7497 20.416C10.7497 19.8376 10.9699 19.2316 11.4378 18.7633Z" fill="#F4B720"/>
</g>
<defs>
<clipPath id="clip0_367_3398">
<rect width="137.308" height="29.75" fill="white" transform="translate(0.337891 0.5)"/>
</clipPath>
</defs>
</svg>
