<svg width="139" height="49" viewBox="0 0 139 49" fill="none" xmlns="http://www.w3.org/2000/svg">
<path d="M3.17235 22.0142H0.65625V16.4541H3.17235V12.2976C3.17235 7.38136 5.10383 4.33984 12.5461 4.33984H12.8963V10.3661H12.361C10.8983 10.3661 10.2544 11.01 10.2544 12.9415V16.4541H12.8297V22.0142H10.2544V47.6464H3.17235V22.0142ZM13.9398 5.51156H21.1304V12.532H13.9398V5.51156ZM13.999 16.4566H21.0811V47.6464H13.999V16.4541V16.4566Z" fill="white"/>
<path d="M22.9531 4.33984H30.0352V47.6464H22.9531V4.33984Z" fill="white"/>
<path d="M31.6738 16.4542H38.8126V19.8484C40.1003 18.0921 42.7348 16.0447 45.1325 16.0447C47.4735 16.0447 48.9362 16.9228 49.4049 19.9076C50.8677 17.9762 53.7366 16.0447 55.9123 16.0447C58.7786 16.0447 60.4166 17.2139 60.4166 22.5397V47.6464H53.337V25.0558C53.337 23.477 53.0903 22.7148 52.1652 22.7148C51.4055 22.7148 50.3522 23.4178 49.5899 24.1776V47.6464H42.5103V25.0558C42.5103 23.477 42.276 22.7148 41.3978 22.7148C40.5196 22.7148 39.4663 23.477 38.8225 24.1776V47.6464H31.6738V16.4542Z" fill="white"/>
<path d="M62.9219 4.33984H65.4404V20.5588C66.7256 18.8049 68.9506 16.5207 71.6419 16.5207C74.5107 16.5207 75.9143 18.3363 75.9143 23.8964V47.6562H73.3982V24.1208C73.3982 20.7833 73.2231 18.911 71.1165 18.911C69.4193 18.911 67.1376 20.9017 65.4429 23.1243V47.6464H62.9219V4.33984Z" fill="white"/>
<path d="M78.5488 32.3131C78.5488 21.6616 80.4778 16.511 85.5692 16.511C90.6039 16.511 92.5921 21.6616 92.5921 32.3131C92.5921 42.8462 90.6039 48.056 85.5692 48.056C80.5346 48.056 78.5488 42.8462 78.5488 32.3131ZM90.0193 32.2539C90.0193 25.1151 89.4914 18.8519 85.5791 18.8519C81.8321 18.8519 81.0723 24.5872 81.0723 32.2539C81.0723 39.4519 81.5977 45.715 85.5791 45.715C89.3163 45.7199 90.0193 40.0464 90.0193 32.2539Z" fill="white"/>
<path d="M95.2275 40.5643V16.9229H97.7436V40.33C97.7436 43.6675 97.9188 45.5398 100.025 45.5398C101.723 45.5398 104.004 43.5491 105.699 41.3266V16.9229H108.208V47.6464H105.692V43.9586C104.414 45.7199 102.191 47.9399 99.5 47.9399C96.6311 47.9399 95.2275 46.1244 95.2275 40.5643Z" fill="white"/>
<path d="M109.688 41.9112L111.908 41.0922C113.02 44.1337 114.658 45.8308 117.233 45.8308C119.749 45.8308 120.862 44.077 120.862 41.3907C120.862 38.2899 118.755 35.7738 116.471 33.0234C113.898 29.9202 111.205 26.7603 111.205 22.7814C111.205 19.0813 113.605 16.4023 117.174 16.4023C120.509 16.4023 122.206 18.5682 123.553 22.1968L121.333 23.0157C120.455 20.549 119.402 18.7433 117.177 18.7433C115.129 18.7433 113.782 20.4404 113.782 22.7814C113.782 26.1757 116.182 28.751 118.405 31.383C121.04 34.6021 123.44 37.7053 123.44 41.3907C123.44 45.372 121.274 48.1792 117.236 48.1792C113.484 48.1718 111.261 46.1244 109.688 41.9112Z" fill="white"/>
<path d="M124.897 32.3131C124.897 21.4272 126.886 16.511 131.92 16.511C137.656 16.511 138.475 24.4046 138.475 32.0195V32.3131H127.414C127.414 40.9172 128.292 45.715 131.977 45.715C134.671 45.715 135.371 43.7243 136.015 39.22L138.235 39.4519C137.475 45.8902 135.028 48.056 131.856 48.056C126.886 48.056 124.897 43.0805 124.897 32.3131ZM135.899 30.093C135.84 23.8299 135.137 18.8544 131.92 18.8544C128.642 18.8544 127.823 22.4263 127.414 30.093H135.899Z" fill="white"/>
<path d="M69.7627 9.00699C69.7627 5.32658 72.2467 4.00439 74.3854 4.00439C76.7782 4.00439 77.7945 5.32658 78.3742 6.81404L76.4871 7.485C76.1072 6.39716 75.419 5.87173 74.3484 5.87173C73.0805 5.87173 72.0099 6.7055 72.0099 9.00699C72.0099 11.0544 72.8437 12.1793 74.3139 12.1793C75.3277 12.1793 76.0406 11.8709 76.5611 10.5117L78.4087 11.1851C77.7205 12.7269 76.5784 14.0121 74.2596 14.0121C72.0297 14.0096 69.7627 12.5246 69.7627 9.00699Z" fill="white"/>
<path d="M79.7139 0.578125H81.9981V2.517H79.7139V0.578125ZM79.7336 4.18453H81.9808V13.8049H79.7336V4.18453Z" fill="white"/>
<path d="M84.0332 4.18456H86.2829V5.48948C86.7355 5.01427 87.2813 4.63756 87.8861 4.38289C88.491 4.12822 89.1418 4.00108 89.798 4.00942C91.4853 4.00942 92.5707 4.99612 92.5707 6.91033V13.8173H90.3235V7.46535C90.3235 6.39725 89.872 5.90636 88.8927 5.90636C87.9134 5.90636 87.0969 6.41451 86.2829 7.15701V13.8173H84.0332V4.18456Z" fill="white"/>
<path d="M93.873 9.00699C93.873 5.34631 96.4631 4.00439 98.4588 4.00439C100.615 4.00439 102.682 5.29205 102.682 9.2068V9.73222H96.1005C96.1918 11.459 97.2624 12.2335 98.6758 12.2335C99.1807 12.2528 99.6837 12.1622 100.15 11.968C100.616 11.7738 101.035 11.4806 101.377 11.1087L102.554 12.2705C102.049 12.8391 101.425 13.2897 100.727 13.5902C100.029 13.8908 99.2729 14.034 98.513 14.0096C96.1005 14.0096 93.873 12.5419 93.873 9.00699ZM100.634 8.06469C100.506 6.58463 99.7809 5.81747 98.439 5.81747C97.3512 5.81747 96.3546 6.43416 96.1375 8.06469H100.634Z" fill="white"/>
<path d="M104.095 4.18444H106.315V5.51156C106.725 5.03967 107.232 4.66119 107.801 4.40163C108.37 4.14206 108.988 4.00744 109.613 4.00684C111.226 4.00684 111.863 4.64079 112.242 5.5831C112.662 5.09779 113.179 4.70652 113.76 4.43489C114.341 4.16326 114.973 4.0174 115.615 4.00684C117.571 4.00684 118.424 5.18595 118.424 6.90775V13.8147H116.204V7.46524C116.204 6.39713 115.896 5.90624 114.845 5.90624C113.937 5.90624 113.212 6.4144 112.378 7.15936V13.8196H110.158V7.46524C110.158 6.39713 109.85 5.90624 108.799 5.90624C107.911 5.90624 107.168 6.4144 106.332 7.15936V13.8196H104.112V4.19924L104.095 4.18444Z" fill="white"/>
<path d="M119.685 11.491C119.685 9.4066 121.461 8.01041 125.955 7.50226V7.21365C125.955 6.25161 125.449 5.83473 124.379 5.83473C123.037 5.83473 121.949 6.48842 121.135 7.13965L120.047 5.74346C121.327 4.61429 122.98 3.99916 124.687 4.01672C127.26 4.01672 128.141 5.25011 128.141 7.49733V11.454C128.141 12.6134 128.215 13.3214 128.414 13.8098H126.165C126.019 13.415 125.945 12.9972 125.948 12.5764C124.961 13.5631 123.826 13.9529 122.396 13.9529C120.844 13.9553 119.685 13.0845 119.685 11.491ZM125.967 11.1284V9.00699C123.303 9.3696 121.89 10.0233 121.89 11.0741C121.89 11.8339 122.415 12.2335 123.232 12.2335C123.738 12.239 124.241 12.1442 124.71 11.9545C125.18 11.7648 125.607 11.4841 125.967 11.1284Z" fill="white"/>
<path d="M129.273 12.4876L130.487 11.1284C131.332 11.8524 132.404 12.2566 133.516 12.2705C134.713 12.2705 135.435 11.9622 135.435 11.1654C135.435 10.3686 134.449 10.1491 133.297 9.87776C131.642 9.49541 129.668 9.06126 129.668 6.83131C129.668 5.14651 131.119 4.00439 133.238 4.00439C135.07 4.00439 136.198 4.52982 137.184 5.36358L136.116 6.81404C135.341 6.19385 134.394 5.82701 133.403 5.7632C132.169 5.7632 131.772 6.19735 131.772 6.7499C131.772 7.5294 132.734 7.76374 133.876 8.01782C135.524 8.38043 137.537 8.79732 137.537 11.0445C137.537 13.0747 135.707 14.017 133.514 14.017C131.738 14.0096 130.144 13.3756 129.273 12.4876Z" fill="white"/>
</svg>
