<svg width="138" height="57" viewBox="0 0 138 57" fill="none" xmlns="http://www.w3.org/2000/svg">
<g opacity="0.8" clip-path="url(#clip0_367_3390)">
<path d="M68.4365 56.7499C106.488 56.7499 137.331 44.0434 137.331 28.3797C137.331 12.7066 106.488 0 68.4365 0C30.3851 0 -0.467773 12.7066 -0.467773 28.3797C-0.467773 44.0434 30.3851 56.7499 68.4365 56.7499Z" fill="white"/>
<path d="M85.6768 21.3794L87.4813 14.1899H63.9589L62.1641 21.3794H69.8632L66.0844 36.4857H74.1897L77.9684 21.3794H85.6768Z" fill="#6231F4"/>
<path d="M61.9367 14.1899H50.2039L42.7316 30.7133V14.1899H31.3673L24.2539 42.5602H32.0662L36.6953 24.2513V42.5602H42.7316L51.6209 24.2513L47.3605 42.5602H54.8233L61.9367 14.1899Z" fill="#6231F4"/>
<path d="M112.609 14.1899H105.146L101.245 29.2867L97.6832 14.1899H89.5024L82.3984 42.5602H89.8708L93.7723 27.1233L97.6832 42.5602H105.505L112.609 14.1899Z" fill="#6231F4"/>
<path d="M65.5739 38.5071L64.5537 42.56H72.6684L73.6793 38.5071H65.5739Z" fill="#6231F4"/>
</g>
<defs>
<clipPath id="clip0_367_3390">
<rect width="137.298" height="56.75" fill="white" transform="translate(0.0146484)"/>
</clipPath>
</defs>
</svg>
