<svg width="133" height="33" viewBox="0 0 133 33" fill="none" xmlns="http://www.w3.org/2000/svg">
<g clip-path="url(#clip0_367_3451)">
<path d="M26.3405 30.1502C35.6833 25.1787 40.2262 15.3859 36.4762 8.31446C32.7262 1.24303 22.119 -0.471258 12.7762 4.50017C3.43333 9.4716 -1.0881 19.243 2.64047 26.3359C6.36904 33.4287 17.019 35.1216 26.3405 30.1502ZM12.1976 14.0359C17.5333 11.6145 23.6619 12.1287 25.8905 15.1716C28.119 18.2145 25.6119 22.6716 20.2762 25.093C14.9405 27.5145 8.8119 27.0002 6.58333 23.9573C6.49761 23.8287 6.4119 23.6787 6.32618 23.5502C6.09047 22.9716 5.89761 22.3716 5.79047 21.7502C5.61904 19.0502 8.04047 15.943 12.1976 14.0359ZM32.5119 10.4145C35.3833 15.8359 31.9119 23.3145 24.7548 27.1073C20.6405 29.293 16.2048 29.7859 12.6262 28.8002C15.4762 28.7787 18.5833 28.1359 21.4976 26.8073C28.4619 23.6359 31.7619 17.8287 28.8476 13.843C25.9333 9.85731 17.919 9.1716 10.9333 12.343C9.45475 13.0073 8.14761 13.8002 7.03333 14.6787C8.49047 11.8716 11.0405 9.30017 14.3833 7.5216C21.519 3.70731 29.6405 5.01446 32.5119 10.4145Z" fill="#F4B61E"/>
<path d="M42.0693 29.6572V5.57147H46.8693V13.0286H47.2122C47.9408 8.95718 51.1336 5.07861 57.2408 5.07861C63.9265 5.07861 67.2265 9.57861 67.2265 15.15V29.6358H61.9979V16.5643C61.9979 12.0643 59.9622 9.77147 54.9693 9.77147C49.6765 9.77147 47.3193 12.4929 47.3193 17.7215V29.6358L42.0693 29.6572Z" fill="black"/>
<path d="M77.2764 19.5858V5.07861H82.4621V18.1715C82.4621 22.6715 84.5406 24.9643 89.6406 24.9643C94.9764 24.9643 97.4407 22.2429 97.4407 17.0143V5.07861H102.626V29.1643H97.8264V21.7072H97.5264C96.7549 25.7786 93.5621 29.6572 87.3478 29.6572C80.5764 29.6572 77.2764 25.1572 77.2764 19.5858Z" fill="black"/>
<path d="M107.555 21.1928V21.0428H112.655V21.4286C112.655 24.5143 114.498 25.5214 119.426 25.5214C124.012 25.5214 125.384 24.5786 125.384 22.4786C125.384 20.5286 124.248 19.9071 120.884 19.4357L114.455 18.5786C109.998 18 107.319 16.1143 107.319 12.15C107.319 8.01427 111.069 5.05713 118.291 5.05713C125.491 5.05713 129.841 7.94999 129.841 13.5643V13.7143H124.784V13.4357C124.784 10.6286 123.369 9.14999 118.162 9.14999C113.855 9.14999 112.334 10.0928 112.334 12.3428C112.334 14.1857 113.276 14.8714 116.834 15.3428L122.276 16.0928C127.869 16.8 130.419 18.7071 130.419 22.6071C130.419 27.0214 126.069 29.6357 119.448 29.6357C111.862 29.6571 107.555 26.6786 107.555 21.1928Z" fill="black"/>
<path d="M72.4329 29.5714C73.6164 29.5714 74.5758 28.612 74.5758 27.4285C74.5758 26.245 73.6164 25.2856 72.4329 25.2856C71.2494 25.2856 70.29 26.245 70.29 27.4285C70.29 28.612 71.2494 29.5714 72.4329 29.5714Z" fill="black"/>
</g>
<defs>
<clipPath id="clip0_367_3451">
<rect width="132.214" height="33" fill="white" transform="translate(0.00488281)"/>
</clipPath>
</defs>
</svg>
