<svg xmlns="http://www.w3.org/2000/svg" width="50" height="50" viewBox="0 0 50 50" fill="none">
  <path d="M14.5871 42.709C13.4044 42.709 12.3979 42.2951 11.5675 41.4672C10.7371 40.6394 10.3219 39.6341 10.3219 38.4515C10.3219 37.2688 10.7363 36.2623 11.5651 35.4319C12.3939 34.6015 13.4003 34.1863 14.5842 34.1863C14.9157 34.1863 15.2629 34.2343 15.6257 34.3305C15.9884 34.4266 16.3261 34.5567 16.6386 34.7205L20.9687 29.3349C20.3481 28.6727 19.9253 27.9406 19.7002 27.1386C19.4751 26.3366 19.4368 25.5237 19.5854 24.6998L13.2163 22.5986C12.8426 23.2652 12.3271 23.8006 11.6696 24.2048C11.0121 24.6091 10.2788 24.8113 9.46962 24.8113C8.28589 24.8113 7.27974 24.3973 6.45116 23.5695C5.62256 22.7416 5.20825 21.7364 5.20825 20.5538C5.20825 19.3711 5.62217 18.3646 6.45001 17.5342C7.27785 16.7037 8.28311 16.2885 9.46578 16.2885C10.6484 16.2885 11.6549 16.7028 12.4853 17.5314C13.3158 18.36 13.731 19.3662 13.731 20.5499C13.731 20.6941 13.7255 20.8056 13.7146 20.8842C13.7037 20.9629 13.6982 21.0416 13.6982 21.1203L20.0345 23.3296C20.406 22.6128 20.9365 21.9867 21.626 21.4513C22.3154 20.9159 23.1256 20.5706 24.0566 20.4155V13.6596C22.9705 13.4564 22.1144 12.951 21.4883 12.1435C20.8622 11.3361 20.5492 10.4405 20.5492 9.4568C20.5492 8.28575 20.9631 7.28502 21.7909 6.45462C22.6188 5.6242 23.624 5.20898 24.8067 5.20898C25.9893 5.20898 26.9959 5.62329 27.8263 6.4519C28.6567 7.28048 29.0719 8.28663 29.0719 9.47035C29.0719 10.445 28.7572 11.3361 28.1278 12.1435C27.4985 12.951 26.644 13.4564 25.5644 13.6596V20.4155C26.4954 20.5706 27.3002 20.9159 27.9787 21.4513C28.6572 21.9867 29.1932 22.6128 29.5865 23.3296L35.9228 21.1203C35.901 21.0197 35.8901 20.9356 35.8901 20.8679V20.5499C35.8901 19.3662 36.304 18.36 37.1318 17.5314C37.9597 16.7028 38.9649 16.2885 40.1476 16.2885C41.3302 16.2885 42.3368 16.7025 43.1672 17.5303C43.9976 18.3582 44.4128 19.3634 44.4128 20.546C44.4128 21.7287 43.9985 22.7352 43.1699 23.5656C42.3413 24.396 41.3352 24.8113 40.1514 24.8113C39.3493 24.8113 38.6161 24.6091 37.9518 24.2048C37.2875 23.8006 36.7719 23.2652 36.4047 22.5986L30.0356 24.6998C30.1842 25.5237 30.146 26.335 29.9209 27.1337C29.6958 27.9325 29.2729 28.6552 28.6523 29.3021L32.9825 34.6779C33.295 34.5359 33.6326 34.4184 33.9954 34.3256C34.3582 34.2327 34.7053 34.1863 35.0368 34.1863C36.2208 34.1863 37.2272 34.6002 38.056 35.428C38.8848 36.2559 39.2992 37.2611 39.2992 38.4438C39.2992 39.6264 38.8852 40.633 38.0574 41.4634C37.2295 42.2938 36.2243 42.709 35.0417 42.709C33.859 42.709 32.8525 42.2947 32.0221 41.4661C31.1917 40.6375 30.7764 39.6313 30.7764 38.4476C30.7764 37.9408 30.8578 37.4529 31.0207 36.9841C31.1834 36.5153 31.4539 36.0787 31.8319 35.6745L27.5017 30.2232C26.7303 30.7236 25.8371 30.9739 24.822 30.9739C23.8069 30.9739 22.9027 30.7236 22.1095 30.2232L17.7891 35.6745C18.1453 36.0787 18.4103 36.5153 18.584 36.9841C18.7578 37.4529 18.8446 37.9408 18.8446 38.4476C18.8446 39.6313 18.4307 40.6375 17.6029 41.4661C16.775 42.2947 15.7698 42.709 14.5871 42.709ZM9.46962 23.1067C10.1711 23.1067 10.7726 22.8559 11.2741 22.3544C11.7757 21.8529 12.0264 21.2514 12.0264 20.5499C12.0264 19.8484 11.7757 19.2469 11.2741 18.7454C10.7726 18.2438 10.1711 17.9931 9.46962 17.9931C8.76814 17.9931 8.16663 18.2438 7.6651 18.7454C7.16356 19.2469 6.9128 19.8484 6.9128 20.5499C6.9128 21.2514 7.16356 21.8529 7.6651 22.3544C8.16663 22.8559 8.76814 23.1067 9.46962 23.1067ZM14.5833 41.0044C15.2847 41.0044 15.8862 40.7537 16.3878 40.2521C16.8893 39.7506 17.1401 39.1491 17.1401 38.4476C17.1401 37.7461 16.8893 37.1446 16.3878 36.6431C15.8862 36.1416 15.2847 35.8908 14.5833 35.8908C13.8818 35.8908 13.2803 36.1416 12.7787 36.6431C12.2772 37.1446 12.0264 37.7461 12.0264 38.4476C12.0264 39.1491 12.2772 39.7506 12.7787 40.2521C13.2803 40.7537 13.8818 41.0044 14.5833 41.0044ZM24.8105 12.0272C25.512 12.0272 26.1135 11.7764 26.615 11.2749C27.1166 10.7733 27.3673 10.1718 27.3673 9.47035C27.3673 8.76887 27.1166 8.16736 26.615 7.66583C26.1135 7.1643 25.512 6.91353 24.8105 6.91353C24.109 6.91353 23.5075 7.1643 23.006 7.66583C22.5045 8.16736 22.2537 8.76887 22.2537 9.47035C22.2537 10.1718 22.5045 10.7733 23.006 11.2749C23.5075 11.7764 24.109 12.0272 24.8105 12.0272ZM24.8105 29.2693C25.807 29.2693 26.6571 28.9174 27.3608 28.2138C28.0644 27.5101 28.4163 26.66 28.4163 25.6635C28.4163 24.667 28.0644 23.8169 27.3608 23.1133C26.6571 22.4096 25.807 22.0578 24.8105 22.0578C23.814 22.0578 22.9639 22.4096 22.2603 23.1133C21.5566 23.8169 21.2048 24.667 21.2048 25.6635C21.2048 26.66 21.5566 27.5101 22.2603 28.2138C22.9639 28.9174 23.814 29.2693 24.8105 29.2693ZM35.0378 41.0044C35.7393 41.0044 36.3408 40.7537 36.8423 40.2521C37.3439 39.7506 37.5946 39.1491 37.5946 38.4476C37.5946 37.7461 37.3439 37.1446 36.8423 36.6431C36.3408 36.1416 35.7393 35.8908 35.0378 35.8908C34.3363 35.8908 33.7348 36.1416 33.2333 36.6431C32.7317 37.1446 32.481 37.7461 32.481 38.4476C32.481 39.1491 32.7317 39.7506 33.2333 40.2521C33.7348 40.7537 34.3363 41.0044 35.0378 41.0044ZM40.1514 23.1067C40.8529 23.1067 41.4544 22.8559 41.956 22.3544C42.4575 21.8529 42.7083 21.2514 42.7083 20.5499C42.7083 19.8484 42.4575 19.2469 41.956 18.7454C41.4544 18.2438 40.8529 17.9931 40.1514 17.9931C39.45 17.9931 38.8485 18.2438 38.3469 18.7454C37.8454 19.2469 37.5946 19.8484 37.5946 20.5499C37.5946 21.2514 37.8454 21.8529 38.3469 22.3544C38.8485 22.8559 39.45 23.1067 40.1514 23.1067Z" fill="#444444"/>
</svg>