<svg width="400" height="400" viewBox="0 0 400 400" fill="none" xmlns="http://www.w3.org/2000/svg">
<circle cx="200" cy="200" r="199.5" fill="#F4F4F5" stroke="#B8BCCA" stroke-linecap="round"/>
<path d="M155.806 195.242V201.416C155.806 202.284 156.016 202.928 156.436 203.348C156.866 203.768 157.458 203.978 158.214 203.978C158.961 203.978 159.544 203.768 159.964 203.348C160.394 202.928 160.608 202.284 160.608 201.416V195.242H161.882V201.402C161.882 202.214 161.719 202.9 161.392 203.46C161.066 204.011 160.622 204.421 160.062 204.692C159.512 204.963 158.891 205.098 158.2 205.098C157.51 205.098 156.884 204.963 156.324 204.692C155.774 204.421 155.335 204.011 155.008 203.46C154.691 202.9 154.532 202.214 154.532 201.402V195.242H155.806ZM165.282 198.742C165.534 198.303 165.907 197.939 166.402 197.65C166.906 197.351 167.489 197.202 168.152 197.202C168.833 197.202 169.449 197.365 170 197.692C170.56 198.019 170.998 198.481 171.316 199.078C171.633 199.666 171.792 200.352 171.792 201.136C171.792 201.911 171.633 202.601 171.316 203.208C170.998 203.815 170.56 204.286 170 204.622C169.449 204.958 168.833 205.126 168.152 205.126C167.498 205.126 166.92 204.981 166.416 204.692C165.921 204.393 165.543 204.025 165.282 203.586V208.64H164.008V197.328H165.282V198.742ZM170.49 201.136C170.49 200.557 170.373 200.053 170.14 199.624C169.906 199.195 169.589 198.868 169.188 198.644C168.796 198.42 168.362 198.308 167.886 198.308C167.419 198.308 166.985 198.425 166.584 198.658C166.192 198.882 165.874 199.213 165.632 199.652C165.398 200.081 165.282 200.581 165.282 201.15C165.282 201.729 165.398 202.237 165.632 202.676C165.874 203.105 166.192 203.437 166.584 203.67C166.985 203.894 167.419 204.006 167.886 204.006C168.362 204.006 168.796 203.894 169.188 203.67C169.589 203.437 169.906 203.105 170.14 202.676C170.373 202.237 170.49 201.724 170.49 201.136ZM174.743 194.64V205H173.469V194.64H174.743ZM180.26 205.126C179.541 205.126 178.888 204.963 178.3 204.636C177.721 204.309 177.264 203.847 176.928 203.25C176.601 202.643 176.438 201.943 176.438 201.15C176.438 200.366 176.606 199.675 176.942 199.078C177.287 198.471 177.754 198.009 178.342 197.692C178.93 197.365 179.588 197.202 180.316 197.202C181.044 197.202 181.702 197.365 182.29 197.692C182.878 198.009 183.34 198.467 183.676 199.064C184.021 199.661 184.194 200.357 184.194 201.15C184.194 201.943 184.017 202.643 183.662 203.25C183.317 203.847 182.845 204.309 182.248 204.636C181.651 204.963 180.988 205.126 180.26 205.126ZM180.26 204.006C180.717 204.006 181.147 203.899 181.548 203.684C181.949 203.469 182.271 203.147 182.514 202.718C182.766 202.289 182.892 201.766 182.892 201.15C182.892 200.534 182.771 200.011 182.528 199.582C182.285 199.153 181.968 198.835 181.576 198.63C181.184 198.415 180.759 198.308 180.302 198.308C179.835 198.308 179.406 198.415 179.014 198.63C178.631 198.835 178.323 199.153 178.09 199.582C177.857 200.011 177.74 200.534 177.74 201.15C177.74 201.775 177.852 202.303 178.076 202.732C178.309 203.161 178.617 203.483 179 203.698C179.383 203.903 179.803 204.006 180.26 204.006ZM185.393 201.136C185.393 200.352 185.552 199.666 185.869 199.078C186.186 198.481 186.62 198.019 187.171 197.692C187.731 197.365 188.352 197.202 189.033 197.202C189.705 197.202 190.288 197.347 190.783 197.636C191.278 197.925 191.646 198.289 191.889 198.728V197.328H193.177V205H191.889V203.572C191.637 204.02 191.259 204.393 190.755 204.692C190.26 204.981 189.682 205.126 189.019 205.126C188.338 205.126 187.722 204.958 187.171 204.622C186.62 204.286 186.186 203.815 185.869 203.208C185.552 202.601 185.393 201.911 185.393 201.136ZM191.889 201.15C191.889 200.571 191.772 200.067 191.539 199.638C191.306 199.209 190.988 198.882 190.587 198.658C190.195 198.425 189.761 198.308 189.285 198.308C188.809 198.308 188.375 198.42 187.983 198.644C187.591 198.868 187.278 199.195 187.045 199.624C186.812 200.053 186.695 200.557 186.695 201.136C186.695 201.724 186.812 202.237 187.045 202.676C187.278 203.105 187.591 203.437 187.983 203.67C188.375 203.894 188.809 204.006 189.285 204.006C189.761 204.006 190.195 203.894 190.587 203.67C190.988 203.437 191.306 203.105 191.539 202.676C191.772 202.237 191.889 201.729 191.889 201.15ZM194.854 201.136C194.854 200.352 195.013 199.666 195.33 199.078C195.647 198.481 196.081 198.019 196.632 197.692C197.192 197.365 197.817 197.202 198.508 197.202C199.105 197.202 199.661 197.342 200.174 197.622C200.687 197.893 201.079 198.252 201.35 198.7V194.64H202.638V205H201.35V203.558C201.098 204.015 200.725 204.393 200.23 204.692C199.735 204.981 199.157 205.126 198.494 205.126C197.813 205.126 197.192 204.958 196.632 204.622C196.081 204.286 195.647 203.815 195.33 203.208C195.013 202.601 194.854 201.911 194.854 201.136ZM201.35 201.15C201.35 200.571 201.233 200.067 201 199.638C200.767 199.209 200.449 198.882 200.048 198.658C199.656 198.425 199.222 198.308 198.746 198.308C198.27 198.308 197.836 198.42 197.444 198.644C197.052 198.868 196.739 199.195 196.506 199.624C196.273 200.053 196.156 200.557 196.156 201.136C196.156 201.724 196.273 202.237 196.506 202.676C196.739 203.105 197.052 203.437 197.444 203.67C197.836 203.894 198.27 204.006 198.746 204.006C199.222 204.006 199.656 203.894 200.048 203.67C200.449 203.437 200.767 203.105 201 202.676C201.233 202.237 201.35 201.729 201.35 201.15ZM215.047 198.098C215.047 198.91 214.767 199.587 214.207 200.128C213.657 200.66 212.812 200.926 211.673 200.926H209.797V205H208.523V195.242H211.673C212.775 195.242 213.61 195.508 214.179 196.04C214.758 196.572 215.047 197.258 215.047 198.098ZM211.673 199.876C212.383 199.876 212.905 199.722 213.241 199.414C213.577 199.106 213.745 198.667 213.745 198.098C213.745 196.894 213.055 196.292 211.673 196.292H209.797V199.876H211.673ZM220.439 197.188C221.017 197.188 221.54 197.314 222.007 197.566C222.473 197.809 222.837 198.177 223.099 198.672C223.369 199.167 223.505 199.769 223.505 200.478V205H222.245V200.66C222.245 199.895 222.053 199.311 221.671 198.91C221.288 198.499 220.765 198.294 220.103 198.294C219.431 198.294 218.894 198.504 218.493 198.924C218.101 199.344 217.905 199.955 217.905 200.758V205H216.631V194.64H217.905V198.42C218.157 198.028 218.502 197.725 218.941 197.51C219.389 197.295 219.888 197.188 220.439 197.188ZM228.932 205.126C228.213 205.126 227.56 204.963 226.972 204.636C226.393 204.309 225.936 203.847 225.6 203.25C225.273 202.643 225.11 201.943 225.11 201.15C225.11 200.366 225.278 199.675 225.614 199.078C225.959 198.471 226.426 198.009 227.014 197.692C227.602 197.365 228.26 197.202 228.988 197.202C229.716 197.202 230.374 197.365 230.962 197.692C231.55 198.009 232.012 198.467 232.348 199.064C232.693 199.661 232.866 200.357 232.866 201.15C232.866 201.943 232.688 202.643 232.334 203.25C231.988 203.847 231.517 204.309 230.92 204.636C230.322 204.963 229.66 205.126 228.932 205.126ZM228.932 204.006C229.389 204.006 229.818 203.899 230.22 203.684C230.621 203.469 230.943 203.147 231.186 202.718C231.438 202.289 231.564 201.766 231.564 201.15C231.564 200.534 231.442 200.011 231.2 199.582C230.957 199.153 230.64 198.835 230.248 198.63C229.856 198.415 229.431 198.308 228.974 198.308C228.507 198.308 228.078 198.415 227.686 198.63C227.303 198.835 226.995 199.153 226.762 199.582C226.528 200.011 226.412 200.534 226.412 201.15C226.412 201.775 226.524 202.303 226.748 202.732C226.981 203.161 227.289 203.483 227.672 203.698C228.054 203.903 228.474 204.006 228.932 204.006ZM236.095 198.378V202.9C236.095 203.273 236.174 203.539 236.333 203.698C236.492 203.847 236.767 203.922 237.159 203.922H238.097V205H236.949C236.24 205 235.708 204.837 235.353 204.51C234.998 204.183 234.821 203.647 234.821 202.9V198.378H233.827V197.328H234.821V195.396H236.095V197.328H238.097V198.378H236.095ZM242.987 205.126C242.268 205.126 241.615 204.963 241.027 204.636C240.448 204.309 239.991 203.847 239.655 203.25C239.328 202.643 239.165 201.943 239.165 201.15C239.165 200.366 239.333 199.675 239.669 199.078C240.014 198.471 240.481 198.009 241.069 197.692C241.657 197.365 242.315 197.202 243.043 197.202C243.771 197.202 244.429 197.365 245.017 197.692C245.605 198.009 246.067 198.467 246.403 199.064C246.748 199.661 246.921 200.357 246.921 201.15C246.921 201.943 246.743 202.643 246.389 203.25C246.043 203.847 245.572 204.309 244.975 204.636C244.377 204.963 243.715 205.126 242.987 205.126ZM242.987 204.006C243.444 204.006 243.873 203.899 244.275 203.684C244.676 203.469 244.998 203.147 245.241 202.718C245.493 202.289 245.619 201.766 245.619 201.15C245.619 200.534 245.497 200.011 245.255 199.582C245.012 199.153 244.695 198.835 244.303 198.63C243.911 198.415 243.486 198.308 243.029 198.308C242.562 198.308 242.133 198.415 241.741 198.63C241.358 198.835 241.05 199.153 240.817 199.582C240.583 200.011 240.467 200.534 240.467 201.15C240.467 201.775 240.579 202.303 240.803 202.732C241.036 203.161 241.344 203.483 241.727 203.698C242.109 203.903 242.529 204.006 242.987 204.006Z" fill="#B8BCCA"/>
</svg>
