<svg width="36" height="40" viewBox="0 0 36 40" fill="none" xmlns="http://www.w3.org/2000/svg">
<rect width="35.7143" height="40" rx="5" fill="#F0ECFE"/>
<path d="M25.5045 15.0156C25.6384 15.1496 25.7143 15.3304 25.7143 15.5201V29.2857C25.7143 29.6808 25.3951 30 25 30H10.7143C10.3192 30 10 29.6808 10 29.2857V10.7143C10 10.3192 10.3192 10 10.7143 10H20.1942C20.3839 10 20.567 10.0759 20.7009 10.2098L25.5045 15.0156ZM24.067 15.8482L19.8661 11.6473V15.8482H24.067ZM13.5714 19.3304C13.5241 19.3304 13.4786 19.3492 13.4452 19.3827C13.4117 19.4161 13.3929 19.4616 13.3929 19.5089V20.5804C13.3929 20.6277 13.4117 20.6731 13.4452 20.7066C13.4786 20.7401 13.5241 20.7589 13.5714 20.7589H22.1429C22.1902 20.7589 22.2356 20.7401 22.2691 20.7066C22.3026 20.6731 22.3214 20.6277 22.3214 20.5804V19.5089C22.3214 19.4616 22.3026 19.4161 22.2691 19.3827C22.2356 19.3492 22.1902 19.3304 22.1429 19.3304H13.5714ZM13.5714 22.3661C13.5241 22.3661 13.4786 22.3849 13.4452 22.4184C13.4117 22.4519 13.3929 22.4973 13.3929 22.5446V23.6161C13.3929 23.6634 13.4117 23.7089 13.4452 23.7423C13.4786 23.7758 13.5241 23.7946 13.5714 23.7946H17.6786C17.7259 23.7946 17.7714 23.7758 17.8048 23.7423C17.8383 23.7089 17.8571 23.6634 17.8571 23.6161V22.5446C17.8571 22.4973 17.8383 22.4519 17.8048 22.4184C17.7714 22.3849 17.7259 22.3661 17.6786 22.3661H13.5714Z" fill="#6231F4"/>
</svg>
