<svg width="18" height="17" viewBox="0 0 18 17" fill="none" xmlns="http://www.w3.org/2000/svg">
<path fillRule="evenodd" clipRule="evenodd" d="M16.6236 7.66807L15.9985 7.16792V15.3995H16.9985C17.3298 15.3995 17.5985 15.6682 17.5985 15.9995C17.5985 16.3309 17.3298 16.5995 16.9985 16.5995H0.99846C0.667089 16.5995 0.39846 16.3309 0.39846 15.9995C0.39846 15.6682 0.667089 15.3995 0.99846 15.3995H1.99846V7.16792L1.37328 7.66807C1.11452 7.87507 0.736944 7.83312 0.529938 7.57436C0.322933 7.31561 0.364885 6.93803 0.623643 6.73103L7.12437 1.53044C8.22003 0.653916 9.77689 0.653916 10.8725 1.53044L17.3733 6.73103C17.632 6.93803 17.674 7.31561 17.467 7.57436C17.26 7.83312 16.8824 7.87507 16.6236 7.66807ZM8.99846 3.79955C7.78343 3.79955 6.79846 4.78452 6.79846 5.99955C6.79846 7.21457 7.78343 8.19955 8.99846 8.19955C10.2135 8.19955 11.1985 7.21457 11.1985 5.99955C11.1985 4.78452 10.2135 3.79955 8.99846 3.79955ZM10.3951 9.04883C10.0281 8.99949 9.56985 8.99952 9.03795 8.99954H8.95896C8.42707 8.99952 7.96878 8.99949 7.60178 9.04883C7.20847 9.10171 6.83146 9.22096 6.52567 9.52675C6.21987 9.83255 6.10062 10.2096 6.04774 10.6029C5.9984 10.9699 5.99843 11.4282 5.99846 11.96L5.99846 15.3995H7.19846H10.7985H11.9985L11.9985 11.9601L11.9985 11.8612C11.9983 11.3712 11.9954 10.9469 11.9492 10.6029C11.8963 10.2096 11.777 9.83255 11.4713 9.52675C11.1655 9.22096 10.7884 9.10171 10.3951 9.04883Z" fill="white"/>
</svg>
