<svg xmlns="http://www.w3.org/2000/svg" width="16" height="16" viewBox="0 0 16 16" fill="none">
  <path
    fill-rule="evenodd"
    clip-rule="evenodd"
    d="M8.4714 2.74735C8.21105 2.487 7.78895 2.487 7.5286 2.74734L3.5286 6.74735C3.40357 6.87237 3.33333 7.04194 3.33333 7.21875V13.3331H5.33333V9.33313C5.33333 8.96494 5.63181 8.66647 6 8.66647H10C10.3682 8.66647 10.6667 8.96494 10.6667 9.33313V13.3331H12.6667V7.21875C12.6667 7.04194 12.5964 6.87237 12.4714 6.74735L8.4714 2.74735ZM6.58579 1.80454C7.36684 1.02349 8.63317 1.02349 9.41421 1.80454L13.4142 5.80454C13.7893 6.17961 14 6.68832 14 7.21875V13.9998C14 14.368 13.7015 14.6665 13.3333 14.6665H10C9.63181 14.6665 9.33333 14.368 9.33333 13.9998V9.9998H6.66667V13.9998C6.66667 14.368 6.36819 14.6665 6 14.6665H2.66667C2.29848 14.6665 2 14.368 2 13.9998V7.21875C2 6.68832 2.21071 6.17961 2.58579 5.80454L6.58579 1.80454Z"
    fill="#444444"
  />
</svg>
