<svg xmlns="http://www.w3.org/2000/svg" width="50" height="50" viewBox="0 0 50 50" fill="none">
  <path d="M43.75 13.7814V36.2173C43.75 37.1762 43.4288 37.9768 42.7865 38.6191C42.1441 39.2615 41.3435 39.5827 40.3846 39.5827H9.61536C8.65651 39.5827 7.8559 39.2615 7.21354 38.6191C6.57118 37.9768 6.25 37.1762 6.25 36.2173V13.7814C6.25 12.8225 6.57118 12.0219 7.21354 11.3796C7.8559 10.7372 8.65651 10.416 9.61536 10.416H40.3846C41.3435 10.416 42.1441 10.7372 42.7865 11.3796C43.4288 12.0219 43.75 12.8225 43.75 13.7814ZM8.33333 18.3487H41.6667V13.7814C41.6667 13.4609 41.5331 13.1671 41.266 12.9C40.9989 12.6329 40.7051 12.4993 40.3846 12.4993H9.61536C9.29488 12.4993 9.00108 12.6329 8.73396 12.9C8.46688 13.1671 8.33333 13.4609 8.33333 13.7814V18.3487ZM8.33333 23.3167V36.2173C8.33333 36.5378 8.46688 36.8316 8.73396 37.0987C9.00108 37.3658 9.29488 37.4993 9.61536 37.4993H40.3846C40.7051 37.4993 40.9989 37.3658 41.266 37.0987C41.5331 36.8316 41.6667 36.5378 41.6667 36.2173V23.3167H8.33333Z" fill="#444444"/>
</svg>