<svg xmlns="http://www.w3.org/2000/svg" width="50" height="50" viewBox="0 0 50 50" fill="none">
  <path d="M14.5833 42.709C11.9951 42.709 9.78556 41.7935 7.95466 39.9626C6.12372 38.1317 5.20825 35.9221 5.20825 33.334C5.20825 31.28 5.79119 29.4538 6.95705 27.8552C8.12292 26.2567 9.62332 25.1475 11.4583 24.5279V26.7675C10.243 27.3444 9.24471 28.2245 8.46346 29.4077C7.68221 30.5909 7.29159 31.8997 7.29159 33.334C7.29159 35.3372 8.00606 37.0533 9.43502 38.4822C10.864 39.9112 12.5801 40.6256 14.5833 40.6256C16.5864 40.6256 18.3025 39.9112 19.7315 38.4822C21.1604 37.0533 21.8749 35.3372 21.8749 33.334V32.2923H33.1129C33.3106 31.8463 33.6157 31.481 34.0284 31.1965C34.441 30.9121 34.9038 30.7699 35.4166 30.7699C36.1244 30.7699 36.7287 31.0203 37.2295 31.5211C37.7303 32.0219 37.9807 32.6262 37.9807 33.334C37.9807 34.0418 37.7303 34.6461 37.2295 35.1469C36.7287 35.6477 36.1244 35.8981 35.4166 35.8981C34.8771 35.8981 34.4077 35.7625 34.0084 35.4914C33.6091 35.2203 33.3106 34.8484 33.1129 34.3757H23.9102C23.5843 36.9317 22.5153 38.9596 20.703 40.4594C18.8908 41.9591 16.8509 42.709 14.5833 42.709ZM35.4166 42.709C33.9529 42.709 32.5914 42.3918 31.3321 41.7575C30.0727 41.1231 28.9783 40.2384 28.0488 39.1032H30.9775C31.5437 39.5573 32.2155 39.9245 32.9927 40.205C33.77 40.4854 34.5779 40.6256 35.4166 40.6256C37.4198 40.6256 39.1359 39.9112 40.5648 38.4822C41.9938 37.0533 42.7083 35.3372 42.7083 33.334C42.7083 31.3308 41.9938 29.6147 40.5648 28.1858C39.1359 26.7568 37.4198 26.0423 35.4166 26.0423C34.8023 26.0423 34.2334 26.1111 33.7099 26.2487C33.1864 26.3862 32.6775 26.5792 32.1834 26.8276L26.3501 17.096C25.6209 17.1975 24.9599 17.0039 24.3669 16.5151C23.7739 16.0263 23.4775 15.3826 23.4775 14.584C23.4775 13.8762 23.7279 13.2719 24.2287 12.7711C24.7295 12.2703 25.3338 12.0199 26.0416 12.0199C26.7494 12.0199 27.3537 12.2703 27.8545 12.7711C28.3553 13.2719 28.6057 13.8762 28.6057 14.584C28.6057 14.8377 28.5656 15.0855 28.4855 15.3272C28.4054 15.5689 28.2905 15.7766 28.141 15.9502L33.0728 24.2354C33.4308 24.166 33.7993 24.1026 34.1786 24.0451C34.5579 23.9877 34.9705 23.959 35.4166 23.959C38.0047 23.959 40.2143 24.8745 42.0452 26.7054C43.8761 28.5363 44.7916 30.7458 44.7916 33.334C44.7916 35.9221 43.8761 38.1317 42.0452 39.9626C40.2143 41.7935 38.0047 42.709 35.4166 42.709ZM14.5833 35.8981C13.8754 35.8981 13.2711 35.6477 12.7703 35.1469C12.2695 34.6461 12.0191 34.0418 12.0191 33.334C12.0191 32.6235 12.2822 32.0038 12.8084 31.475C13.3346 30.9462 14.025 30.7285 14.8797 30.822L20.2163 21.9358C19.0491 21.025 18.1656 19.9319 17.566 18.6565C16.9664 17.3811 16.6666 16.0236 16.6666 14.584C16.6666 11.9958 17.5821 9.78629 19.413 7.95539C21.2439 6.12445 23.4534 5.20898 26.0416 5.20898C28.6297 5.20898 30.8393 6.12445 32.6702 7.95539C34.5011 9.78629 35.4166 11.9958 35.4166 14.584H33.3333C33.3333 12.5808 32.6188 10.8647 31.1898 9.43575C29.7609 8.0068 28.0448 7.29232 26.0416 7.29232C24.0384 7.29232 22.3223 8.0068 20.8934 9.43575C19.4644 10.8647 18.7499 12.5808 18.7499 14.584C18.7499 16.0503 19.1345 17.3611 19.9038 18.5163C20.673 19.6714 21.7254 20.5789 23.0608 21.2386L16.6706 31.9157C16.8202 32.1161 16.937 32.3391 17.0212 32.5848C17.1053 32.8305 17.1474 33.0802 17.1474 33.334C17.1474 34.0418 16.897 34.6461 16.3962 35.1469C15.8954 35.6477 15.2911 35.8981 14.5833 35.8981Z" fill="#444444"/>
</svg>