<svg width="32" height="32" viewBox="0 0 32 32" fill="none" xmlns="http://www.w3.org/2000/svg">
<path opacity="0.5" d="M9.66002 2.66669H22.34C23.8851 2.66669 24.6577 2.66669 25.2808 2.8835C26.4624 3.29463 27.39 4.24961 27.7894 5.46597C28 6.10742 28 6.90276 28 8.49343V27.1656C28 28.3099 26.6867 28.9171 25.8559 28.1568C25.3678 27.7102 24.6322 27.7102 24.1441 28.1568L23.5 28.7463C22.6446 29.5291 21.3554 29.5291 20.5 28.7463C19.6446 27.9635 18.3554 27.9635 17.5 28.7463C16.6446 29.5291 15.3554 29.5291 14.5 28.7463C13.6446 27.9635 12.3554 27.9635 11.5 28.7463C10.6446 29.5291 9.35545 29.5291 8.5 28.7463L7.85587 28.1568C7.36777 27.7102 6.63223 27.7102 6.14413 28.1568C5.31333 28.9171 4 28.3099 4 27.1656V8.49343C4 6.90276 4 6.10742 4.21061 5.46597C4.60997 4.24961 5.53763 3.29463 6.71918 2.8835C7.34228 2.66669 8.11486 2.66669 9.66002 2.66669Z" fill="#6231F4"/>
<path d="M9.33301 9C8.78072 9 8.33301 9.44772 8.33301 10C8.33301 10.5523 8.78072 11 9.33301 11H9.99967C10.552 11 10.9997 10.5523 10.9997 10C10.9997 9.44772 10.552 9 9.99967 9H9.33301Z" fill="#6231F4"/>
<path d="M13.9997 9C13.4474 9 12.9997 9.44772 12.9997 10C12.9997 10.5523 13.4474 11 13.9997 11H22.6663C23.2186 11 23.6663 10.5523 23.6663 10C23.6663 9.44772 23.2186 9 22.6663 9H13.9997Z" fill="#6231F4"/>
<path d="M9.33301 13.6667C8.78072 13.6667 8.33301 14.1144 8.33301 14.6667C8.33301 15.219 8.78072 15.6667 9.33301 15.6667H9.99967C10.552 15.6667 10.9997 15.219 10.9997 14.6667C10.9997 14.1144 10.552 13.6667 9.99967 13.6667H9.33301Z" fill="#6231F4"/>
<path d="M13.9997 13.6667C13.4474 13.6667 12.9997 14.1144 12.9997 14.6667C12.9997 15.219 13.4474 15.6667 13.9997 15.6667H22.6663C23.2186 15.6667 23.6663 15.219 23.6663 14.6667C23.6663 14.1144 23.2186 13.6667 22.6663 13.6667H13.9997Z" fill="#6231F4"/>
<path d="M9.33301 18.3333C8.78072 18.3333 8.33301 18.781 8.33301 19.3333C8.33301 19.8856 8.78072 20.3333 9.33301 20.3333H9.99967C10.552 20.3333 10.9997 19.8856 10.9997 19.3333C10.9997 18.781 10.552 18.3333 9.99967 18.3333H9.33301Z" fill="#6231F4"/>
<path d="M13.9997 18.3333C13.4474 18.3333 12.9997 18.781 12.9997 19.3333C12.9997 19.8856 13.4474 20.3333 13.9997 20.3333H22.6663C23.2186 20.3333 23.6663 19.8856 23.6663 19.3333C23.6663 18.781 23.2186 18.3333 22.6663 18.3333H13.9997Z" fill="#6231F4"/>
</svg>
